# xmcd
#
# Track frame offsets: 
#        150
#        21834
#        41297
#        66074
#        77722
#        94090
#        120526
#        142128
#        160728
#        190095
#        207263
#        223855
#        247781
#        267927
#        288087
#        310148
#
# Disc length: 4412 seconds
#
# Revision: 0
# Processed by: cddbd v1.5.2PL0 Copyright (c) Steve Scherf et al.
# Submitted via: ExactAudioCopy v0.99pb5
#
DISCID=db113a10
DTITLE=Aretha Franklin - Beautiful Ballads and Love Songs
DYEAR=2008
DGENRE=Blues
TTITLE0=(It's Just) Your Love
TTITLE1=Love Pang
TTITLE2=I Got Your Love
TTITLE3=You Are My Joy
TTITLE4=Misty
TTITLE5=Freeway Of Love
TTITLE6=This Is For Real
TTITLE7=Love Me Right
TTITLE8=Every Girl (Wants My Guy)
TTITLE9=When You Love Me Like That
TTITLE10=Unforgettable
TTITLE11=Gimme Your Love
TTITLE12=A Rose Is Still A Rose
TTITLE13=Never Leave You Again
TTITLE14=Until You Say You Love Me
TTITLE15=Giving In
EXTD=
EXTT0=
EXTT1=
EXTT2=
EXTT3=
EXTT4=
EXTT5=
EXTT6=
EXTT7=
EXTT8=
EXTT9=
EXTT10=
EXTT11=
EXTT12=
EXTT13=
EXTT14=
EXTT15=
PLAYORDER=
